<svg width="1817" height="324" viewBox="0 0 1817 324" fill="none" xmlns="http://www.w3.org/2000/svg">
<rect width="324" height="324" rx="54.4519" fill="#22C55F"/>
<g clip-path="url(#clip0_128_6)">
<path fill-rule="evenodd" clip-rule="evenodd" d="M187.834 123.337C180.187 118.227 171.197 115.5 162 115.5V69C180.394 69 198.374 74.4544 213.668 84.6733C228.962 94.8923 240.882 109.417 247.921 126.41C254.96 143.404 256.801 162.103 253.213 180.143C249.625 198.184 240.767 214.755 227.761 227.761C214.755 240.767 198.184 249.625 180.143 253.213C162.103 256.801 143.404 254.96 126.41 247.921C109.417 240.882 94.8923 228.962 84.6733 213.668C74.4544 198.374 69 180.394 69 162H115.5C115.5 171.197 118.227 180.187 123.337 187.834C128.446 195.481 135.708 201.441 144.205 204.96C152.702 208.48 162.052 209.401 171.072 207.606C180.092 205.812 188.377 201.384 194.881 194.881C201.384 188.377 205.812 180.092 207.606 171.072C209.401 162.052 208.48 152.702 204.96 144.205C201.441 135.708 195.481 128.446 187.834 123.337Z" fill="white"/>
<path fill-rule="evenodd" clip-rule="evenodd" d="M115.5 69C115.5 75.1065 114.297 81.1532 111.96 86.7948C109.624 92.4364 106.198 97.5626 101.88 101.88C97.5626 106.198 92.4364 109.624 86.7948 111.96C81.1531 114.297 75.1064 115.5 69 115.5L69 162C81.2129 162 93.3063 159.595 104.59 154.921C115.873 150.247 126.125 143.397 134.761 134.761C143.397 126.125 150.247 115.873 154.921 104.59C159.595 93.3063 162 81.2129 162 69L115.5 69Z" fill="white"/>
</g>
<path d="M409.585 258V82.0736H530.018V113.953H446.188V158.584H518.211V190.463H446.188V258H409.585ZM548.181 258V82.0736H584.783V258H548.181ZM615.98 258V82.0736H644.081L738.538 206.521L723.425 210.063V82.0736H760.027V258H731.69L638.886 132.608L652.582 129.066V258H615.98ZM778.254 258L837.762 82.0736H886.408L945.916 258H906.008L894.2 222.106H829.733L817.926 258H778.254ZM839.888 190.227H884.046L857.126 107.105H867.044L839.888 190.227ZM964.198 258V82.0736H992.299L1086.76 206.521L1071.64 210.063V82.0736H1108.25V258H1079.91L987.104 132.608L1000.8 129.066V258H964.198ZM1223.06 260.834C1210.46 260.834 1198.73 258.551 1187.87 253.986C1177.16 249.42 1167.8 243.044 1159.77 234.858C1151.74 226.672 1145.44 217.069 1140.88 206.049C1136.47 195.029 1134.27 182.985 1134.27 169.919C1134.27 156.852 1136.47 144.809 1140.88 133.789C1145.29 122.611 1151.5 113.008 1159.53 104.979C1167.56 96.7931 1176.93 90.496 1187.63 86.088C1198.5 81.5226 1210.3 79.2399 1223.06 79.2399C1235.81 79.2399 1247.22 81.3651 1257.3 85.6157C1267.53 89.8663 1276.19 95.5337 1283.27 102.618C1290.36 109.702 1295.39 117.574 1298.38 126.232L1266.03 141.818C1263.04 133.317 1257.77 126.311 1250.21 120.801C1242.81 115.134 1233.76 112.3 1223.06 112.3C1212.66 112.3 1203.53 114.74 1195.66 119.62C1187.79 124.501 1181.65 131.27 1177.24 139.929C1172.99 148.43 1170.87 158.426 1170.87 169.919C1170.87 181.411 1172.99 191.486 1177.24 200.145C1181.65 208.804 1187.79 215.573 1195.66 220.453C1203.53 225.334 1212.66 227.774 1223.06 227.774C1233.76 227.774 1242.81 225.019 1250.21 219.509C1257.77 213.841 1263.04 206.757 1266.03 198.256L1298.38 213.841C1295.39 222.5 1290.36 230.371 1283.27 237.456C1276.19 244.54 1267.53 250.207 1257.3 254.458C1247.22 258.708 1235.81 260.834 1223.06 260.834ZM1321.87 258V82.0736H1440.18V113.953H1358.47V153.861H1435.46V185.74H1358.47V226.121H1440.18V258H1321.87ZM1475.81 258V222.579H1511.23V258H1475.81ZM1557.32 258V82.0736H1593.92V258H1557.32ZM1713.2 260.834C1699.98 260.834 1687.7 258.551 1676.36 253.986C1665.03 249.42 1655.11 243.044 1646.61 234.858C1638.27 226.514 1631.73 216.832 1627.01 205.812C1622.29 194.792 1619.93 182.828 1619.93 169.919C1619.93 157.01 1622.21 145.045 1626.77 134.025C1631.5 123.005 1638.03 113.402 1646.37 105.216C1654.88 97.0293 1664.79 90.6534 1676.13 86.088C1687.46 81.5226 1699.82 79.2399 1713.2 79.2399C1726.58 79.2399 1738.94 81.5226 1750.28 86.088C1761.61 90.6534 1771.45 97.0293 1779.8 105.216C1788.3 113.402 1794.83 123.005 1799.39 134.025C1804.12 145.045 1806.48 157.01 1806.48 169.919C1806.48 182.828 1804.12 194.792 1799.39 205.812C1794.67 216.832 1788.06 226.514 1779.56 234.858C1771.22 243.044 1761.38 249.42 1750.04 253.986C1738.71 258.551 1726.43 260.834 1713.2 260.834ZM1713.2 227.774C1721.23 227.774 1728.63 226.357 1735.4 223.523C1742.33 220.689 1748.39 216.754 1753.58 211.716C1758.78 206.521 1762.79 200.381 1765.63 193.297C1768.46 186.213 1769.88 178.42 1769.88 169.919C1769.88 161.418 1768.46 153.704 1765.63 146.777C1762.79 139.692 1758.78 133.553 1753.58 128.358C1748.39 123.162 1742.33 119.227 1735.4 116.55C1728.63 113.717 1721.23 112.3 1713.2 112.3C1705.17 112.3 1697.7 113.717 1690.77 116.55C1684 119.227 1678.02 123.162 1672.82 128.358C1667.63 133.553 1663.61 139.692 1660.78 146.777C1657.95 153.704 1656.53 161.418 1656.53 169.919C1656.53 178.42 1657.95 186.213 1660.78 193.297C1663.61 200.381 1667.63 206.521 1672.82 211.716C1678.02 216.754 1684 220.689 1690.77 223.523C1697.7 226.357 1705.17 227.774 1713.2 227.774Z" fill="white"/>
<defs>
<clipPath id="clip0_128_6">
<rect width="186" height="186" fill="white" transform="translate(69 69)"/>
</clipPath>
</defs>
</svg>
